<?xml version="1.0" standalone="no"?>
<!DOCTYPE svg PUBLIC "-//W3C//DTD SVG 20010904//EN"
 "http://www.w3.org/TR/2001/REC-SVG-20010904/DTD/svg10.dtd">
<svg version="1.0" xmlns="http://www.w3.org/2000/svg"
 width="300.000000pt" height="300.000000pt" viewBox="0 0 300.000000 300.000000"
 preserveAspectRatio="xMidYMid meet">
<metadata>
Created by potrace 1.10, written by Peter Selinger 2001-2011
</metadata>
<g transform="translate(0.000000,300.000000) scale(0.100000,-0.100000)"
fill="#000000" stroke="none">
<path d="M910 2647 c-19 -5 -40 -13 -47 -19 -7 -5 -42 -16 -79 -23 -156 -33
-230 -128 -177 -228 10 -20 17 -57 17 -102 1 -64 4 -75 37 -121 20 -27 39 -62
43 -77 7 -28 71 -98 140 -152 l38 -30 -36 -40 c-42 -45 -81 -122 -92 -179 -4
-22 -17 -55 -30 -74 -13 -19 -24 -41 -24 -49 0 -7 -18 -32 -39 -56 -126 -136
-146 -366 -44 -504 12 -17 23 -37 23 -44 0 -6 15 -44 34 -83 18 -39 37 -89 41
-111 22 -125 156 -273 278 -306 23 -6 57 -25 76 -41 19 -17 60 -43 92 -58 32
-15 71 -38 87 -52 81 -68 214 -100 331 -79 73 13 148 46 188 83 12 11 43 30
70 43 26 12 69 38 96 59 26 20 53 36 60 36 8 0 41 14 75 30 112 57 208 177
227 285 4 22 22 71 41 109 19 38 34 75 34 83 0 8 12 30 26 48 35 46 64 144 64
215 0 87 -41 207 -90 262 -49 56 -104 160 -120 228 -13 52 -78 162 -108 180
-15 9 -13 13 17 37 74 61 141 133 147 160 4 15 19 44 34 63 40 53 53 94 48
152 -4 39 -1 59 13 82 57 93 -16 197 -161 227 -30 6 -75 21 -99 32 -59 27
-277 35 -341 12 -23 -8 -52 -15 -65 -15 -39 0 -141 -59 -186 -108 l-44 -47
-45 49 c-45 49 -145 106 -186 106 -12 0 -40 6 -62 14 -46 17 -244 19 -302 3z
m293 -31 c33 -14 68 -23 80 -20 11 2 42 -9 68 -26 26 -16 50 -26 55 -22 4 4 4
1 0 -5 -4 -7 -2 -13 4 -13 6 0 29 -18 51 -40 22 -22 43 -40 47 -40 4 1 27 21
52 46 25 26 62 54 82 63 21 10 36 20 33 22 -2 3 9 6 25 7 17 1 52 11 80 22 52
21 93 24 236 17 66 -4 99 -10 119 -23 15 -10 33 -19 39 -21 6 -1 37 -8 69 -16
31 -8 57 -13 57 -10 0 12 53 -34 70 -62 24 -39 25 -70 5 -109 -10 -18 -17 -61
-18 -107 -2 -64 -6 -81 -24 -101 -12 -13 -34 -49 -48 -81 -15 -31 -31 -57 -36
-57 -5 0 -9 -6 -9 -13 0 -7 -13 -20 -29 -30 -16 -10 -46 -33 -65 -52 -38 -37
-43 -74 -13 -99 24 -19 68 -83 72 -105 2 -12 6 -25 9 -29 3 -5 8 -23 11 -40 3
-17 18 -53 34 -80 16 -27 31 -58 35 -68 3 -10 21 -35 39 -54 38 -41 73 -103
82 -145 12 -51 12 -198 0 -230 -12 -35 -35 -78 -45 -85 -3 -3 -17 -32 -30 -65
-13 -33 -32 -75 -42 -93 -10 -18 -23 -54 -28 -80 -12 -54 -38 -118 -60 -146
-49 -64 -160 -146 -197 -146 -13 0 -23 -4 -23 -10 0 -5 -6 -7 -12 -5 -7 3 -26
-8 -43 -23 -16 -15 -61 -45 -100 -66 -38 -21 -72 -41 -75 -45 -12 -16 -130
-70 -178 -81 -68 -16 -213 -2 -228 21 -3 5 -12 9 -21 9 -9 0 -37 17 -62 37
-25 21 -51 37 -58 35 -7 -2 -13 1 -13 6 0 4 -19 16 -42 26 -24 10 -49 26 -56
35 -7 9 -18 16 -25 16 -7 1 -11 6 -9 13 1 7 -5 12 -13 12 -8 0 -23 4 -33 9 -9
6 -29 12 -44 15 -15 4 -33 13 -42 21 -8 8 -19 15 -24 15 -5 0 -33 22 -61 50
-28 27 -49 50 -46 50 3 0 -6 17 -19 38 -14 20 -30 60 -37 87 -6 28 -27 82 -45
121 -19 39 -34 77 -34 85 0 8 -14 34 -30 58 -40 59 -54 111 -54 201 1 119 21
178 87 257 26 30 44 60 40 66 -3 6 -1 7 5 3 7 -4 12 -4 13 1 2 28 9 47 23 62
9 10 16 25 16 34 0 9 5 19 10 22 6 3 10 18 10 33 0 15 10 46 23 69 20 37 32
55 84 115 13 15 13 21 -8 50 -13 18 -23 35 -22 38 0 3 -4 4 -10 2 -5 -2 -13 1
-16 5 -3 5 -23 19 -43 33 -23 15 -45 43 -60 75 -13 27 -36 69 -53 93 -25 37
-30 54 -31 105 0 69 -12 130 -23 123 -4 -3 -8 13 -10 35 -4 72 44 113 164 141
86 21 89 22 96 31 10 14 82 26 124 21 22 -3 58 -1 80 4 56 14 54 14 118 -12z"/>
<path d="M1095 2544 c-22 -11 -35 -13 -53 -5 -12 6 -43 11 -67 11 -36 0 -48
-5 -60 -24 -13 -19 -23 -23 -50 -21 -40 4 -111 -13 -142 -33 -24 -15 -31 -46
-13 -57 11 -7 60 -80 60 -90 0 -3 -6 -5 -14 -5 -28 0 -36 -78 -11 -104 8 -8
15 -19 15 -24 0 -5 9 -12 20 -15 13 -3 21 -14 22 -31 0 -14 1 -32 2 -38 1 -7
13 -25 28 -39 15 -15 24 -29 21 -33 -3 -3 2 -6 13 -6 33 0 84 -38 84 -62 0
-19 2 -20 10 -8 6 10 10 11 10 3 0 -7 20 -18 45 -24 25 -6 45 -14 45 -18 0 -8
110 3 150 15 14 4 34 13 45 21 11 7 27 13 37 13 10 0 17 4 16 8 -2 4 8 19 22
33 36 34 34 78 -5 121 -16 18 -33 34 -37 36 -4 2 -4 10 -1 19 5 11 3 14 -6 9
-13 -8 -58 30 -48 41 7 6 67 -38 67 -50 0 -10 57 -60 79 -68 9 -3 26 1 39 9
70 46 78 191 15 260 -7 7 -13 17 -13 22 0 15 -54 66 -99 94 -39 25 -43 26 -58
10 -14 -14 -18 -14 -27 -2 -8 10 -97 49 -110 48 -1 0 -14 -7 -31 -16z m73 -20
c20 -8 49 -27 65 -41 26 -26 27 -26 27 -5 0 27 13 28 56 1 86 -53 155 -177
139 -249 -8 -35 -51 -90 -70 -90 -7 0 -30 21 -51 46 -78 93 -209 171 -346 207
-68 18 -77 7 -16 -18 49 -19 186 -108 240 -155 69 -59 130 -138 123 -159 -7
-25 -52 -69 -87 -87 -73 -38 -198 -39 -258 -2 -25 15 -29 22 -21 32 9 11 2 17
-36 30 -72 25 -146 106 -97 106 10 0 -3 18 -35 48 -37 35 -51 55 -51 75 0 22
4 27 26 27 20 0 25 4 20 16 -3 9 -6 22 -6 29 0 7 -16 35 -36 61 -34 45 -35 48
-19 61 26 19 77 26 145 21 61 -4 69 -1 49 19 -35 35 62 45 126 13 48 -24 47
-24 44 -2 -3 38 9 41 69 16z m34 -252 c23 -27 1 -18 -37 15 -39 34 -39 34 -7
16 19 -10 38 -24 44 -31z"/>
<path d="M2047 2553 c-4 -3 -58 -7 -121 -7 -105 -2 -117 -4 -140 -25 -21 -20
-25 -21 -33 -7 -22 39 -147 -59 -193 -150 -57 -116 -6 -261 85 -238 24 6 24 5
19 -43 -4 -43 -2 -51 25 -80 35 -38 76 -60 142 -77 49 -13 65 -13 112 -2 15 3
38 8 51 11 13 2 43 23 66 45 24 23 57 44 73 47 20 4 25 8 15 14 -10 7 -10 9 2
9 23 0 63 65 55 89 -4 15 0 23 19 33 23 12 66 78 66 101 0 6 -12 21 -26 34
-25 23 -25 25 -9 44 10 10 15 19 10 19 -4 0 4 12 19 27 33 33 30 61 -9 82 -39
21 -60 25 -117 26 -27 0 -48 4 -48 8 0 9 -41 46 -51 47 -3 0 -9 -3 -12 -7z
m-134 -20 c4 -3 2 -12 -5 -20 -19 -23 -3 -24 43 -3 47 21 105 26 129 10 12 -7
12 -12 2 -22 -19 -19 -14 -30 9 -23 57 18 199 -6 199 -33 0 -5 -9 -17 -19 -26
-20 -18 -43 -61 -56 -103 -5 -19 -3 -23 18 -23 13 0 26 -3 30 -6 13 -13 -18
-67 -60 -104 -29 -25 -40 -40 -29 -40 9 0 16 -4 16 -10 0 -21 -63 -79 -98 -90
-20 -6 -43 -13 -51 -16 -10 -3 -11 -7 -1 -18 27 -33 -93 -72 -185 -60 -79 10
-141 49 -171 106 -13 24 -11 29 25 75 77 96 248 222 344 253 48 15 39 31 -11
19 -157 -40 -256 -97 -359 -208 -57 -61 -66 -62 -107 -8 -55 74 16 245 126
303 37 19 48 18 48 -6 0 -25 12 -26 27 0 24 37 116 73 136 53z m-93 -263 c0
-5 -5 -10 -11 -10 -5 0 -7 5 -4 10 3 6 8 10 11 10 2 0 4 -4 4 -10z m-50 -47
c-14 -9 -30 -24 -37 -33 -11 -13 -12 -13 -13 3 0 11 9 21 20 24 11 3 20 9 20
14 0 5 8 9 17 9 14 0 12 -4 -7 -17z m-71 -74 c-21 -21 -29 -24 -29 -9 0 16 34
47 41 37 4 -5 -2 -18 -12 -28z"/>
<path d="M1414 1898 c-3 -5 -11 -7 -17 -6 -31 6 -124 -71 -151 -124 -25 -49
26 -120 103 -140 104 -28 143 -31 220 -21 100 13 164 43 185 87 17 36 13 85
-9 102 -8 6 -15 16 -15 21 0 5 -9 18 -20 28 -11 10 -20 14 -20 10 0 -4 -8 -1
-17 7 -37 31 -104 49 -179 47 -41 -1 -77 -6 -80 -11z m221 -43 c108 -52 139
-123 77 -175 -88 -73 -345 -66 -422 11 -36 37 -37 53 -5 95 75 98 229 128 350
69z"/>
<path d="M1058 1881 c-26 -9 -60 -26 -76 -39 -15 -13 -34 -27 -42 -32 -8 -5
-12 -10 -8 -10 4 0 -6 -15 -23 -32 -26 -29 -43 -69 -55 -132 -6 -31 25 -83 51
-88 42 -9 139 49 222 132 100 99 105 106 107 142 2 60 -87 90 -176 59z m148
-21 c11 0 11 -37 0 -58 -36 -68 -190 -197 -267 -224 -83 -29 -83 100 0 195 62
70 169 113 236 95 16 -4 31 -8 31 -8z"/>
<path d="M1801 1871 c-43 -45 -33 -75 54 -173 13 -16 27 -28 31 -28 4 0 14 -7
23 -15 32 -31 76 -65 84 -65 5 0 21 -9 36 -19 14 -10 35 -20 46 -21 35 -4 65
0 64 8 -3 18 2 33 10 28 15 -10 0 98 -20 140 -23 48 -100 123 -152 148 -21 9
-62 19 -92 22 -52 5 -58 3 -84 -25z m165 -20 c103 -47 171 -147 165 -243 -2
-31 -38 -42 -79 -22 -77 36 -160 103 -216 174 -36 46 -47 94 -23 103 29 12
115 5 153 -12z"/>
<path d="M1144 1585 c-10 -8 -25 -15 -32 -15 -14 0 -32 -13 -65 -48 -51 -53
-65 -71 -59 -76 3 -3 1 -6 -4 -6 -16 0 -35 -92 -36 -165 0 -55 4 -72 26 -106
38 -56 59 -79 73 -79 7 0 13 -4 13 -9 0 -20 126 -31 185 -17 11 2 26 5 33 5 7
1 11 5 8 9 -3 5 12 18 33 30 45 25 80 68 110 135 18 38 22 64 20 128 -1 43 -5
79 -9 79 -4 0 -11 11 -14 24 -8 31 -60 85 -104 109 -42 22 -150 23 -178 2z
m177 -33 c143 -75 147 -281 8 -406 -59 -53 -111 -71 -187 -63 -97 10 -161 82
-170 192 -7 89 18 155 83 221 84 85 174 104 266 56z"/>
<path d="M1665 1568 c-22 -18 -43 -38 -48 -45 -4 -6 -15 -19 -23 -28 -15 -14
-22 -35 -41 -114 -6 -25 15 -129 29 -137 4 -3 8 -14 8 -25 0 -10 4 -19 8 -19
4 0 16 -14 26 -30 10 -17 36 -43 59 -58 23 -15 44 -30 47 -33 13 -16 127 -25
185 -14 11 2 26 4 33 4 7 1 11 5 8 9 -3 5 5 15 18 21 12 7 37 36 54 65 29 46
32 60 32 128 0 73 -20 145 -50 181 -6 6 -19 24 -30 38 -34 46 -114 80 -199 86
-74 4 -77 3 -116 -29z m199 -9 c151 -56 226 -267 140 -391 -121 -175 -397 -66
-421 165 -7 73 11 131 58 181 61 67 129 81 223 45z"/>
<path d="M755 1450 c-11 -5 -17 -9 -13 -9 4 -1 -6 -15 -22 -33 -37 -40 -69
-146 -65 -213 2 -50 35 -134 60 -155 28 -23 70 -28 90 -11 61 51 91 198 67
325 -17 89 -57 122 -117 96z m68 -28 c8 -9 21 -47 28 -84 20 -110 -18 -269
-70 -298 -29 -15 -76 36 -91 101 -24 99 0 205 60 269 32 34 50 37 73 12z"/>
<path d="M2186 1448 c-48 -27 -70 -189 -41 -299 27 -102 92 -164 130 -125 9 9
21 16 26 16 5 0 9 7 9 15 0 8 5 15 10 15 6 0 10 8 10 18 0 10 5 23 12 30 7 7
11 42 10 92 -1 67 -6 90 -32 145 -17 36 -35 65 -41 65 -5 0 -9 7 -9 15 0 8 -6
16 -12 16 -7 1 -23 3 -34 4 -12 1 -29 -2 -38 -7z m63 -24 c13 -9 36 -44 52
-78 51 -108 32 -257 -38 -303 -20 -14 -24 -13 -47 10 -68 68 -80 340 -18 377
23 13 24 13 51 -6z"/>
<path d="M1390 1083 c-19 -10 -36 -21 -38 -25 -2 -5 -9 -8 -16 -8 -15 0 -66
-52 -66 -68 0 -7 -4 -12 -9 -12 -5 0 -12 -17 -17 -37 -8 -43 -13 -135 -6 -128
3 2 14 -12 25 -33 72 -136 259 -178 404 -90 29 18 53 37 53 44 0 6 6 17 13 23
8 6 20 30 27 53 34 111 -10 211 -121 272 -50 27 -201 33 -249 9z m226 -27
c134 -62 174 -204 87 -306 -75 -88 -204 -115 -309 -66 -178 83 -178 289 0 372
69 32 153 32 222 0z"/>
<path d="M899 980 c-64 -11 -85 -46 -88 -140 -2 -56 2 -74 28 -123 32 -61 61
-106 61 -95 0 4 11 -4 24 -17 72 -71 220 -96 270 -45 14 14 27 39 29 57 6 37
-11 123 -24 123 -5 0 -9 6 -9 13 0 8 -8 23 -17 35 -10 11 -25 30 -33 42 -8 12
-27 36 -42 52 -16 17 -28 34 -28 40 0 5 -4 7 -9 3 -5 -3 -24 8 -42 25 -18 16
-35 28 -37 25 -2 -2 -14 0 -26 4 -11 4 -37 5 -57 1z m96 -40 c52 -33 142 -133
174 -195 49 -96 41 -166 -23 -183 -112 -31 -263 72 -302 207 -24 80 1 184 45
194 28 6 75 -4 106 -23z"/>
<path d="M2027 975 c-26 -10 -165 -135 -151 -135 4 0 -8 -14 -25 -32 -17 -17
-31 -40 -31 -49 0 -10 -5 -21 -10 -24 -6 -4 -8 -10 -5 -15 3 -5 1 -11 -5 -15
-5 -3 -10 -32 -10 -64 0 -60 6 -70 57 -98 13 -7 40 -13 62 -13 40 0 150 43
163 63 4 7 8 8 8 3 0 -14 79 86 97 124 18 37 29 144 19 182 -3 13 -17 36 -30
51 -28 32 -91 42 -139 22z m112 -29 c21 -16 41 -70 41 -108 -1 -101 -78 -216
-177 -260 -54 -24 -134 -26 -168 -4 -70 46 4 222 141 334 74 60 122 72 163 38z"/>
<path d="M1427 574 c-6 -6 -72 -24 -94 -26 -7 -1 -13 -5 -13 -10 0 -4 -6 -8
-13 -8 -18 0 -37 -43 -37 -85 0 -28 7 -38 48 -67 90 -64 192 -80 294 -45 99
34 165 119 124 160 -9 9 -16 20 -16 25 0 13 -67 41 -129 52 -59 11 -154 13
-164 4z m238 -52 c86 -44 78 -100 -22 -148 -107 -53 -241 -41 -319 28 -59 52
-37 103 56 133 68 22 233 15 285 -13z"/>
</g>
</svg>
